<svg style="position: absolute; width: 0; height: 0; overflow: hidden;" version="1.1" xmlns="http://www.w3.org/2000/svg" xmlns:xlink="http://www.w3.org/1999/xlink">
<defs>
<symbol id="icon-arc" viewBox="0 0 256 32">
<title>arc</title>
<path fill="#ff6363" style="fill: var(--color5, #ff6363)" d="M19.891 6.622c1.219 0.516 2.281 1.227 3.187 2.133s1.617 1.969 2.133 3.188 0.773 2.516 0.773 3.891c0 1.375-0.258 2.672-0.773 3.891s-1.227 2.281-2.133 3.187c-0.907 0.907-1.969 1.617-3.187 2.133s-2.516 0.773-3.891 0.773c-1.376 0-2.672-0.258-3.891-0.773s-2.281-1.226-3.187-2.133c-0.907-0.906-1.617-1.969-2.133-3.187s-0.773-2.515-0.773-3.891c0-1.375 0.258-2.672 0.773-3.891s1.226-2.281 2.133-3.188c0.906-0.906 1.969-1.617 3.187-2.133s2.515-0.773 3.891-0.773c1.375 0 2.672 0.258 3.891 0.773zM19.586 24.294c1.109-0.484 2.086-1.132 2.93-1.945 0.812-0.844 1.46-1.82 1.945-2.93 0.484-1.109 0.727-2.304 0.727-3.586s-0.243-2.477-0.727-3.586c-0.485-1.109-1.133-2.086-1.945-2.93-0.844-0.812-1.821-1.46-2.93-1.945-1.109-0.484-2.305-0.727-3.586-0.727s-2.477 0.243-3.586 0.727c-1.11 0.485-2.086 1.133-2.93 1.945-0.813 0.844-1.461 1.821-1.945 2.93s-0.727 2.305-0.727 3.586c0 1.282 0.242 2.477 0.727 3.586s1.132 2.086 1.945 2.93c0.844 0.813 1.82 1.461 2.93 1.945 1.109 0.485 2.304 0.727 3.586 0.727s2.476-0.242 3.586-0.727zM21.414 12.083c0.171 0 0.32 0.063 0.445 0.187 0.094 0.125 0.141 0.274 0.141 0.445s-0.063 0.305-0.188 0.399l-6.843 6.656c-0.032 0.063-0.087 0.102-0.164 0.117s-0.149 0.023-0.211 0.023c-0.094 0-0.18-0.007-0.258-0.023s-0.133-0.054-0.164-0.117l-2.672-2.672c-0.116-0.111-0.188-0.266-0.188-0.438 0-0.002 0-0.005 0-0.007v0c0-0.171 0.062-0.305 0.188-0.399 0.094-0.124 0.226-0.187 0.398-0.187s0.32 0.063 0.445 0.187l2.25 2.25 6.422-6.234c0.094-0.124 0.226-0.187 0.398-0.187z"></path>
</symbol>
<symbol id="icon-arrow" viewBox="0 0 60 32">
<title>arrow</title>
<path fill="#fff" style="fill: var(--color1, #fff)" d="M16.5 18.604l-13.5-13.5 3.376-3.376 23.624 23.628 23.624-23.908 3.376 3.376-27 27.28-3.376-3.372z"></path>
</symbol>
<symbol id="icon-book-enjoy" viewBox="0 0 32 32">
<title>book-enjoy</title>
<path fill="#333" style="fill: var(--color2, #333)" d="M16 0c8.837 0 16 7.163 16 16s-7.163 16-16 16-16-7.163-16-16 7.163-16 16-16z"></path>
<path fill="#00a2ff" style="fill: var(--color3, #00a2ff)" d="M26.102 16.161c-0.067 0.198-0.163 0.369-0.284 0.519l0.003-0.003c-0.125 0.157-0.266 0.281-0.422 0.375s-0.328 0.172-0.516 0.234c0.094 0.157 0.172 0.321 0.234 0.492s0.094 0.368 0.094 0.586c0 0.187-0.032 0.375-0.094 0.562-0.066 0.198-0.145 0.368-0.241 0.527l0.007-0.012c-0.127 0.126-0.265 0.242-0.412 0.345l-0.010 0.007c-0.157 0.11-0.313 0.195-0.469 0.258 0.093 0.157 0.171 0.328 0.234 0.516 0.062 0.188 0.093 0.375 0.093 0.563 0 0.219-0.031 0.414-0.093 0.586-0.070 0.19-0.149 0.352-0.241 0.505l0.007-0.013c-0.122 0.153-0.261 0.284-0.416 0.394l-0.006 0.004c-0.157 0.11-0.328 0.18-0.516 0.211 0.125 0.157 0.218 0.321 0.281 0.492s0.094 0.368 0.094 0.586c0 0.219-0.047 0.438-0.141 0.657-0.093 0.218-0.219 0.405-0.375 0.563l0-0c-0.175 0.148-0.376 0.274-0.594 0.369l-0.016 0.006c-0.204 0.089-0.441 0.14-0.69 0.14-0.005 0-0.009-0-0.014-0h-6.187c-0.219 0-0.469-0.031-0.75-0.093-0.346-0.080-0.643-0.176-0.928-0.295l0.038 0.014c-0.373-0.113-0.684-0.233-0.984-0.371l0.047 0.019c-0.15-0.076-0.459-0.21-0.771-0.338l-0.166-0.060c-0.806-0.321-1.168-0.478-1.53-0.639l0.428 0.17c-0.36-0.156-0.618-0.234-0.773-0.234h-4.266v-9.141l0.375-0.047h3.657c0.281 0 0.539-0.031 0.773-0.094s0.476-0.187 0.727-0.375c0.281-0.156 0.601-0.375 0.961-0.656 0.622-0.487 1.041-0.824 1.458-1.166l-0.169 0.134c0.968-0.812 1.539-1.828 1.711-3.047s0.258-1.922 0.258-2.11 0.047-0.367 0.141-0.539c0.089-0.166 0.216-0.301 0.371-0.396l0.004-0.003c0.156-0.125 0.32-0.211 0.492-0.258 0.147-0.043 0.316-0.069 0.491-0.070h0.001c0.25 0 0.5 0.031 0.75 0.093 0.25 0.063 0.484 0.204 0.703 0.422s0.39 0.508 0.516 0.867c0.124 0.36 0.187 0.836 0.187 1.43 0 0.532-0.040 1.039-0.117 1.523-0.088 0.546-0.194 1.013-0.326 1.468l0.021-0.085c-0.097 0.463-0.218 0.862-0.369 1.247l0.018-0.052c0.054-0.193-0.065 0.109-0.181 0.412l-0.17 0.502h6.375c0.281 0 0.523 0.039 0.727 0.117 0.225 0.090 0.419 0.209 0.589 0.354l-0.003-0.002c0.156 0.157 0.273 0.336 0.351 0.539s0.117 0.43 0.117 0.68c0 0.219-0.032 0.422-0.094 0.609zM24.836 16.466c0.124-0.047 0.218-0.117 0.281-0.211 0.089-0.088 0.167-0.188 0.231-0.297l0.004-0.007c0.062-0.109 0.093-0.242 0.093-0.399 0-0.25-0.093-0.469-0.281-0.656s-0.438-0.281-0.75-0.281h-2.812c0 0.031 0 0.031 0 0h-4.828l0.281-0.563c0.875-2.156 1.313-3.891 1.313-5.203 0-1.031-0.172-1.632-0.516-1.804-0.344-0.171-0.626-0.258-0.844-0.258-0.093 0-0.234 0.047-0.422 0.141s-0.281 0.219-0.281 0.375c0 0.188-0.016 0.5-0.047 0.938s-0.125 0.937-0.281 1.5c-0.157 0.562-0.383 1.141-0.68 1.734s-0.711 1.11-1.242 1.547c-2.181 1.764-2.616 2.125-3.051 2.486l1.715-1.384c-0.36 0.297-0.696 0.539-1.008 0.727-0.313 0.187-0.626 0.328-0.938 0.422s-0.641 0.141-0.984 0.141h-3.234v7.594h3.469c0.218 0 0.508 0.070 0.867 0.211s0.804 0.321 1.336 0.539c0.25 0.125 0.523 0.258 0.82 0.399s0.586 0.258 0.867 0.351c0.312 0.094 0.593 0.18 0.844 0.258s0.469 0.117 0.657 0.117h6.187c0.156 0 0.297-0.031 0.422-0.094s0.234-0.141 0.328-0.234c0.093-0.062 0.164-0.156 0.211-0.281 0.047-0.124 0.070-0.25 0.070-0.375 0-0.156-0.023-0.288-0.070-0.398-0.053-0.118-0.124-0.22-0.211-0.305l-0-0c-0.091-0.091-0.2-0.162-0.322-0.209l-0.006-0.002c-0.12-0.044-0.259-0.070-0.403-0.070-0.006 0-0.013 0-0.019 0h-0.093v-0.797h1.078c0.124 0 0.25-0.023 0.375-0.070s0.234-0.117 0.328-0.211c0.062-0.094 0.125-0.203 0.188-0.328s0.093-0.25 0.093-0.375c0-0.125-0.031-0.25-0.093-0.375-0.065-0.13-0.127-0.237-0.195-0.34l0.008 0.012c-0.091-0.061-0.198-0.123-0.309-0.179l-0.019-0.008c-0.109-0.058-0.238-0.092-0.374-0.094h-0.329v-0.797h1.172c0.125 0 0.25-0.023 0.375-0.070s0.234-0.117 0.328-0.211c0.094-0.094 0.172-0.203 0.235-0.328s0.093-0.25 0.093-0.375c0-0.156-0.031-0.297-0.093-0.422-0.063-0.125-0.141-0.218-0.235-0.281-0.094-0.093-0.202-0.171-0.321-0.231l-0.007-0.003c-0.109-0.058-0.238-0.092-0.374-0.094h-0.376v-0.797h1.359c0.156 0 0.297-0.024 0.422-0.071z"></path>
</symbol>
<symbol id="icon-search" viewBox="0 0 32 32">
<title>search</title>
<path fill="#fff" style="fill: var(--color1, #fff)" d="M30.318 32.043l-9.227-9.254c-0.516 0.466-1.089 0.888-1.701 1.25l-0.049 0.027c-0.56 0.335-1.215 0.657-1.896 0.925l-0.093 0.032c-0.624 0.248-1.358 0.456-2.119 0.589l-0.068 0.010c-0.77 0.133-1.525 0.2-2.267 0.2-0.029 0-0.064 0-0.098 0-1.792 0-3.495-0.382-5.032-1.068l0.078 0.031c-1.59-0.703-2.947-1.643-4.096-2.792l-0-0c-1.142-1.148-2.069-2.512-2.712-4.025l-0.032-0.084c-0.629-1.452-0.995-3.144-0.995-4.92 0-0.023 0-0.046 0-0.069v0.004c-0-0.031-0-0.069-0-0.106 0-3.538 1.429-6.743 3.74-9.069l-0.001 0.001c2.316-2.316 5.515-3.749 9.050-3.749 0.034 0 0.068 0 0.103 0l-0.005-0c1.75 0 3.408 0.333 4.971 0.997 1.565 0.666 2.93 1.584 4.096 2.752 1.145 1.154 2.082 2.515 2.75 4.023l0.034 0.086c0.69 1.568 1.035 3.258 1.035 5.066 0 0.746-0.067 1.504-0.198 2.272-0.133 0.773-0.333 1.504-0.597 2.195-0.301 0.777-0.622 1.434-0.991 2.059l0.035-0.065c-0.387 0.664-0.808 1.238-1.281 1.765l0.009-0.010 9.227 9.254zM2.238 17.365c0.607 1.427 1.44 2.645 2.465 3.669l0 0c1.035 1.038 2.262 1.885 3.623 2.482l0.076 0.030c1.305 0.581 2.827 0.919 4.429 0.919 0.023 0 0.046-0 0.069-0l-0.004 0c1.59 0 3.075-0.304 4.454-0.917 1.42-0.635 2.633-1.48 3.659-2.512l0-0c1.029-1.030 1.872-2.247 2.475-3.594l0.030-0.076c0.608-1.382 0.915-2.872 0.915-4.467s-0.306-3.098-0.915-4.507c-0.627-1.44-1.471-2.669-2.506-3.709l0 0c-1.022-1.028-2.236-1.862-3.585-2.445l-0.074-0.029c-1.29-0.556-2.791-0.879-4.368-0.879-0.030 0-0.061 0-0.091 0l0.005-0c-0.021-0-0.045-0-0.069-0-1.597 0-3.118 0.323-4.501 0.907l0.076-0.029c-2.806 1.18-4.992 3.372-6.137 6.108l-0.028 0.075c-0.554 1.31-0.875 2.833-0.875 4.431 0 0.027 0 0.053 0 0.080l-0-0.004c-0 0.028-0 0.061-0 0.094 0 1.578 0.322 3.082 0.904 4.448l-0.028-0.074z"></path>
</symbol>
<symbol id="icon-search-places" viewBox="0 0 32 32">
<title>search-places</title>
<path fill="#333" style="fill: var(--color2, #333)" d="M16 0c8.837 0 16 7.163 16 16s-7.163 16-16 16-16-7.163-16-16 7.163-16 16-16z"></path>
<path fill="#5474fd" style="fill: var(--color4, #5474fd)" d="M24.437 25.589l-5.437-5.438c-0.304 0.274-0.641 0.522-1.002 0.734l-0.029 0.016c-0.33 0.197-0.715 0.386-1.117 0.544l-0.055 0.019c-0.407 0.157-0.837 0.274-1.289 0.351s-0.899 0.117-1.336 0.117c-1.063 0-2.055-0.203-2.977-0.609s-1.727-0.953-2.414-1.641c-0.688-0.687-1.227-1.492-1.617-2.414s-0.586-1.899-0.586-2.93c0-1.062 0.195-2.054 0.586-2.977 0.39-0.921 0.929-1.726 1.617-2.414 0.687-0.687 1.492-1.226 2.414-1.617s1.914-0.586 2.977-0.586c1.031 0 2.007 0.196 2.93 0.586s1.726 0.93 2.414 1.617c0.687 0.688 1.234 1.493 1.641 2.414 0.406 0.922 0.609 1.915 0.609 2.977 0 0.438-0.040 0.883-0.117 1.336-0.084 0.489-0.206 0.922-0.367 1.335l0.016-0.046c-0.177 0.457-0.366 0.843-0.583 1.21l0.021-0.038c-0.228 0.39-0.476 0.728-0.755 1.037l0.005-0.006 5.438 5.437zM7.891 16.963c0.358 0.839 0.849 1.555 1.453 2.156l0 0c0.61 0.61 1.333 1.108 2.135 1.459l0.045 0.017c0.828 0.36 1.711 0.539 2.649 0.539s1.812-0.179 2.625-0.539c0.837-0.373 1.551-0.87 2.156-1.477l0-0c0.606-0.605 1.103-1.32 1.459-2.112l0.018-0.045c0.359-0.812 0.539-1.687 0.539-2.625s-0.18-1.82-0.539-2.649c-0.369-0.846-0.867-1.569-1.477-2.18l0 0c-0.602-0.604-1.318-1.094-2.112-1.437l-0.044-0.017c-0.813-0.343-1.688-0.515-2.625-0.515s-1.821 0.172-2.649 0.516c-0.848 0.354-1.572 0.845-2.18 1.453l-0 0c-0.608 0.607-1.099 1.331-1.437 2.135l-0.016 0.044c-0.344 0.828-0.515 1.711-0.515 2.649s0.171 1.813 0.516 2.625z"></path>
</symbol>
<symbol id="icon-select-places" viewBox="0 0 32 32">
<title>select-places</title>
<path fill="#333" style="fill: var(--color2, #333)" d="M16 0c8.837 0 16 7.163 16 16s-7.163 16-16 16-16-7.163-16-16 7.163-16 16-16z"></path>
<path fill="#ff6363" style="fill: var(--color5, #ff6363)" d="M19.891 6.622c1.219 0.516 2.281 1.227 3.187 2.133s1.617 1.969 2.133 3.188 0.773 2.516 0.773 3.891c0 1.375-0.258 2.672-0.773 3.891s-1.227 2.281-2.133 3.187c-0.907 0.907-1.969 1.617-3.187 2.133s-2.516 0.773-3.891 0.773c-1.376 0-2.672-0.258-3.891-0.773s-2.281-1.226-3.187-2.133c-0.907-0.906-1.617-1.969-2.133-3.187s-0.773-2.515-0.773-3.891c0-1.375 0.258-2.672 0.773-3.891s1.226-2.281 2.133-3.188c0.906-0.906 1.969-1.617 3.187-2.133s2.515-0.773 3.891-0.773c1.375 0 2.672 0.258 3.891 0.773zM19.586 24.294c1.109-0.484 2.086-1.132 2.93-1.945 0.812-0.844 1.46-1.82 1.945-2.93 0.484-1.109 0.727-2.304 0.727-3.586s-0.243-2.477-0.727-3.586c-0.485-1.109-1.133-2.086-1.945-2.93-0.844-0.812-1.821-1.46-2.93-1.945-1.109-0.484-2.305-0.727-3.586-0.727s-2.477 0.243-3.586 0.727c-1.11 0.485-2.086 1.133-2.93 1.945-0.813 0.844-1.461 1.821-1.945 2.93s-0.727 2.305-0.727 3.586c0 1.282 0.242 2.477 0.727 3.586s1.132 2.086 1.945 2.93c0.844 0.813 1.82 1.461 2.93 1.945 1.109 0.485 2.304 0.727 3.586 0.727s2.476-0.242 3.586-0.727zM21.414 12.083c0.171 0 0.32 0.063 0.445 0.187 0.094 0.125 0.141 0.274 0.141 0.445s-0.063 0.305-0.188 0.399l-6.843 6.656c-0.032 0.063-0.087 0.102-0.164 0.117s-0.149 0.023-0.211 0.023c-0.094 0-0.18-0.007-0.258-0.023s-0.133-0.054-0.164-0.117l-2.672-2.672c-0.116-0.111-0.188-0.266-0.188-0.438 0-0.002 0-0.005 0-0.007v0c0-0.171 0.062-0.305 0.188-0.399 0.094-0.124 0.226-0.187 0.398-0.187s0.32 0.063 0.445 0.187l2.25 2.25 6.422-6.234c0.094-0.124 0.226-0.187 0.398-0.187z"></path>
</symbol>
</defs>
</svg>
